<mxfile host="Electron" agent="Mozilla/5.0 (Macintosh; Intel Mac OS X 10_15_7) AppleWebKit/537.36 (KHTML, like Gecko) draw.io/27.0.5 Chrome/134.0.6998.205 Electron/35.3.0 Safari/537.36" version="27.0.5">
  <diagram name="Page-1" id="VGo5PEispSi9OWowygon">
    <mxGraphModel dx="2547" dy="2500" grid="1" gridSize="10" guides="1" tooltips="1" connect="1" arrows="1" fold="1" page="1" pageScale="1" pageWidth="827" pageHeight="1169" math="0" shadow="0">
      <root>
        <mxCell id="0" />
        <mxCell id="1" parent="0" />
        <mxCell id="HhLSWFiGgu7NGeqh1RTd-7" value="crm_cust_info" style="swimlane;fontStyle=0;childLayout=stackLayout;horizontal=1;startSize=26;fillColor=#dae8fc;horizontalStack=0;resizeParent=1;resizeParentMax=0;resizeLast=0;collapsible=1;marginBottom=0;html=1;rounded=1;sketch=1;curveFitting=1;jiggle=2;strokeColor=#6c8ebf;fontSize=26;" vertex="1" parent="1">
          <mxGeometry x="250" y="190" width="180" height="78" as="geometry" />
        </mxCell>
        <mxCell id="HhLSWFiGgu7NGeqh1RTd-8" value="cst_id" style="text;strokeColor=none;fillColor=none;align=left;verticalAlign=top;spacingLeft=4;spacingRight=4;overflow=hidden;rotatable=0;points=[[0,0.5],[1,0.5]];portConstraint=eastwest;whiteSpace=wrap;html=1;fontSize=16;" vertex="1" parent="HhLSWFiGgu7NGeqh1RTd-7">
          <mxGeometry y="26" width="180" height="26" as="geometry" />
        </mxCell>
        <mxCell id="HhLSWFiGgu7NGeqh1RTd-26" value="cst_key" style="text;strokeColor=none;fillColor=none;align=left;verticalAlign=top;spacingLeft=4;spacingRight=4;overflow=hidden;rotatable=0;points=[[0,0.5],[1,0.5]];portConstraint=eastwest;whiteSpace=wrap;html=1;fontSize=16;" vertex="1" parent="HhLSWFiGgu7NGeqh1RTd-7">
          <mxGeometry y="52" width="180" height="26" as="geometry" />
        </mxCell>
        <mxCell id="HhLSWFiGgu7NGeqh1RTd-11" value="Customer Infromation" style="text;html=1;align=center;verticalAlign=middle;whiteSpace=wrap;rounded=0;fontSize=15;" vertex="1" parent="1">
          <mxGeometry x="260" y="160" width="150" height="30" as="geometry" />
        </mxCell>
        <mxCell id="HhLSWFiGgu7NGeqh1RTd-12" value="crm_prd_info" style="swimlane;fontStyle=0;childLayout=stackLayout;horizontal=1;startSize=26;fillColor=#dae8fc;horizontalStack=0;resizeParent=1;resizeParentMax=0;resizeLast=0;collapsible=1;marginBottom=0;html=1;rounded=1;sketch=1;curveFitting=1;jiggle=2;strokeColor=#6c8ebf;fontSize=26;" vertex="1" parent="1">
          <mxGeometry x="250" y="430" width="180" height="52" as="geometry" />
        </mxCell>
        <mxCell id="HhLSWFiGgu7NGeqh1RTd-13" value="prd_key" style="text;strokeColor=none;fillColor=none;align=left;verticalAlign=top;spacingLeft=4;spacingRight=4;overflow=hidden;rotatable=0;points=[[0,0.5],[1,0.5]];portConstraint=eastwest;whiteSpace=wrap;html=1;fontSize=16;" vertex="1" parent="HhLSWFiGgu7NGeqh1RTd-12">
          <mxGeometry y="26" width="180" height="26" as="geometry" />
        </mxCell>
        <mxCell id="HhLSWFiGgu7NGeqh1RTd-14" value="Current &amp;amp; History Product Information" style="text;html=1;align=center;verticalAlign=middle;whiteSpace=wrap;rounded=0;fontSize=15;" vertex="1" parent="1">
          <mxGeometry x="260" y="400" width="150" height="30" as="geometry" />
        </mxCell>
        <mxCell id="HhLSWFiGgu7NGeqh1RTd-15" value="crm_sales_detailes" style="swimlane;fontStyle=0;childLayout=stackLayout;horizontal=1;startSize=26;fillColor=#dae8fc;horizontalStack=0;resizeParent=1;resizeParentMax=0;resizeLast=0;collapsible=1;marginBottom=0;html=1;rounded=1;sketch=1;curveFitting=1;jiggle=2;strokeColor=#6c8ebf;fontSize=26;" vertex="1" parent="1">
          <mxGeometry x="-210" y="270" width="230" height="78" as="geometry" />
        </mxCell>
        <mxCell id="HhLSWFiGgu7NGeqh1RTd-16" value="cst_id&lt;div&gt;&lt;br&gt;&lt;/div&gt;" style="text;strokeColor=none;fillColor=none;align=left;verticalAlign=top;spacingLeft=4;spacingRight=4;overflow=hidden;rotatable=0;points=[[0,0.5],[1,0.5]];portConstraint=eastwest;whiteSpace=wrap;html=1;fontSize=16;" vertex="1" parent="HhLSWFiGgu7NGeqh1RTd-15">
          <mxGeometry y="26" width="230" height="26" as="geometry" />
        </mxCell>
        <mxCell id="HhLSWFiGgu7NGeqh1RTd-18" value="prd_key" style="text;strokeColor=none;fillColor=none;align=left;verticalAlign=top;spacingLeft=4;spacingRight=4;overflow=hidden;rotatable=0;points=[[0,0.5],[1,0.5]];portConstraint=eastwest;whiteSpace=wrap;html=1;fontSize=16;" vertex="1" parent="HhLSWFiGgu7NGeqh1RTd-15">
          <mxGeometry y="52" width="230" height="26" as="geometry" />
        </mxCell>
        <mxCell id="HhLSWFiGgu7NGeqh1RTd-17" value="Current &amp;amp; History Product Information" style="text;html=1;align=center;verticalAlign=middle;whiteSpace=wrap;rounded=0;fontSize=15;" vertex="1" parent="1">
          <mxGeometry x="-200" y="240" width="210" height="30" as="geometry" />
        </mxCell>
        <mxCell id="HhLSWFiGgu7NGeqh1RTd-21" style="edgeStyle=orthogonalEdgeStyle;rounded=0;orthogonalLoop=1;jettySize=auto;html=1;exitX=1;exitY=0.5;exitDx=0;exitDy=0;entryX=0;entryY=0.5;entryDx=0;entryDy=0;" edge="1" parent="1" source="HhLSWFiGgu7NGeqh1RTd-16" target="HhLSWFiGgu7NGeqh1RTd-8">
          <mxGeometry relative="1" as="geometry" />
        </mxCell>
        <mxCell id="HhLSWFiGgu7NGeqh1RTd-22" style="edgeStyle=orthogonalEdgeStyle;rounded=0;orthogonalLoop=1;jettySize=auto;html=1;exitX=1;exitY=0.5;exitDx=0;exitDy=0;entryX=0;entryY=0.5;entryDx=0;entryDy=0;" edge="1" parent="1" source="HhLSWFiGgu7NGeqh1RTd-18" target="HhLSWFiGgu7NGeqh1RTd-13">
          <mxGeometry relative="1" as="geometry" />
        </mxCell>
        <mxCell id="HhLSWFiGgu7NGeqh1RTd-23" value="erp_cust_az12" style="swimlane;fontStyle=0;childLayout=stackLayout;horizontal=1;startSize=26;fillColor=#fff2cc;horizontalStack=0;resizeParent=1;resizeParentMax=0;resizeLast=0;collapsible=1;marginBottom=0;html=1;rounded=1;sketch=1;curveFitting=1;jiggle=2;strokeColor=#d6b656;fontSize=26;" vertex="1" parent="1">
          <mxGeometry x="630" y="138" width="180" height="52" as="geometry" />
        </mxCell>
        <mxCell id="HhLSWFiGgu7NGeqh1RTd-24" value="cid" style="text;strokeColor=none;fillColor=none;align=left;verticalAlign=top;spacingLeft=4;spacingRight=4;overflow=hidden;rotatable=0;points=[[0,0.5],[1,0.5]];portConstraint=eastwest;whiteSpace=wrap;html=1;fontSize=16;" vertex="1" parent="HhLSWFiGgu7NGeqh1RTd-23">
          <mxGeometry y="26" width="180" height="26" as="geometry" />
        </mxCell>
        <mxCell id="HhLSWFiGgu7NGeqh1RTd-25" value="Extra Customer Information" style="text;html=1;align=center;verticalAlign=middle;whiteSpace=wrap;rounded=0;fontSize=15;" vertex="1" parent="1">
          <mxGeometry x="640" y="108" width="150" height="30" as="geometry" />
        </mxCell>
        <mxCell id="HhLSWFiGgu7NGeqh1RTd-29" value="erp_loc_a101" style="swimlane;fontStyle=0;childLayout=stackLayout;horizontal=1;startSize=26;fillColor=#fff2cc;horizontalStack=0;resizeParent=1;resizeParentMax=0;resizeLast=0;collapsible=1;marginBottom=0;html=1;rounded=1;sketch=1;curveFitting=1;jiggle=2;strokeColor=#d6b656;fontSize=26;" vertex="1" parent="1">
          <mxGeometry x="630" y="300" width="180" height="52" as="geometry" />
        </mxCell>
        <mxCell id="HhLSWFiGgu7NGeqh1RTd-30" value="cid" style="text;align=left;verticalAlign=top;spacingLeft=4;spacingRight=4;overflow=hidden;rotatable=0;points=[[0,0.5],[1,0.5]];portConstraint=eastwest;whiteSpace=wrap;html=1;fontSize=16;" vertex="1" parent="HhLSWFiGgu7NGeqh1RTd-29">
          <mxGeometry y="26" width="180" height="26" as="geometry" />
        </mxCell>
        <mxCell id="HhLSWFiGgu7NGeqh1RTd-31" value="Customer Location (Country)" style="text;html=1;align=center;verticalAlign=middle;whiteSpace=wrap;rounded=0;fontSize=15;" vertex="1" parent="1">
          <mxGeometry x="640" y="270" width="150" height="30" as="geometry" />
        </mxCell>
        <mxCell id="HhLSWFiGgu7NGeqh1RTd-32" style="edgeStyle=orthogonalEdgeStyle;rounded=0;orthogonalLoop=1;jettySize=auto;html=1;exitX=0;exitY=0.5;exitDx=0;exitDy=0;entryX=1;entryY=0.5;entryDx=0;entryDy=0;" edge="1" parent="1" source="HhLSWFiGgu7NGeqh1RTd-24" target="HhLSWFiGgu7NGeqh1RTd-26">
          <mxGeometry relative="1" as="geometry" />
        </mxCell>
        <mxCell id="HhLSWFiGgu7NGeqh1RTd-34" style="edgeStyle=orthogonalEdgeStyle;rounded=0;orthogonalLoop=1;jettySize=auto;html=1;exitX=0;exitY=0.5;exitDx=0;exitDy=0;entryX=1;entryY=0.5;entryDx=0;entryDy=0;" edge="1" parent="1" source="HhLSWFiGgu7NGeqh1RTd-30" target="HhLSWFiGgu7NGeqh1RTd-26">
          <mxGeometry relative="1" as="geometry" />
        </mxCell>
        <mxCell id="HhLSWFiGgu7NGeqh1RTd-35" value="erp_px_cat_g1v2" style="swimlane;fontStyle=0;childLayout=stackLayout;horizontal=1;startSize=26;fillColor=#fff2cc;horizontalStack=0;resizeParent=1;resizeParentMax=0;resizeLast=0;collapsible=1;marginBottom=0;html=1;rounded=1;sketch=1;curveFitting=1;jiggle=2;strokeColor=#d6b656;fontSize=26;" vertex="1" parent="1">
          <mxGeometry x="620" y="430" width="240" height="52" as="geometry" />
        </mxCell>
        <mxCell id="HhLSWFiGgu7NGeqh1RTd-36" value="id" style="text;align=left;verticalAlign=top;spacingLeft=4;spacingRight=4;overflow=hidden;rotatable=0;points=[[0,0.5],[1,0.5]];portConstraint=eastwest;whiteSpace=wrap;html=1;fontSize=16;" vertex="1" parent="HhLSWFiGgu7NGeqh1RTd-35">
          <mxGeometry y="26" width="240" height="26" as="geometry" />
        </mxCell>
        <mxCell id="HhLSWFiGgu7NGeqh1RTd-37" value="Product Category Information" style="text;html=1;align=center;verticalAlign=middle;whiteSpace=wrap;rounded=0;fontSize=15;" vertex="1" parent="1">
          <mxGeometry x="630" y="400" width="210" height="30" as="geometry" />
        </mxCell>
        <mxCell id="HhLSWFiGgu7NGeqh1RTd-38" style="edgeStyle=orthogonalEdgeStyle;rounded=0;orthogonalLoop=1;jettySize=auto;html=1;exitX=0;exitY=0.5;exitDx=0;exitDy=0;entryX=1;entryY=0.5;entryDx=0;entryDy=0;" edge="1" parent="1" source="HhLSWFiGgu7NGeqh1RTd-36" target="HhLSWFiGgu7NGeqh1RTd-13">
          <mxGeometry relative="1" as="geometry" />
        </mxCell>
        <mxCell id="HhLSWFiGgu7NGeqh1RTd-39" value="" style="rounded=1;whiteSpace=wrap;html=1;fillColor=none;glass=0;" vertex="1" parent="1">
          <mxGeometry x="-280" y="30" width="730" height="570" as="geometry" />
        </mxCell>
        <mxCell id="HhLSWFiGgu7NGeqh1RTd-41" value="CRM" style="text;html=1;align=center;verticalAlign=middle;whiteSpace=wrap;rounded=1;fontSize=40;fillColor=#dae8fc;strokeColor=#6c8ebf;" vertex="1" parent="1">
          <mxGeometry x="-50" y="10" width="230" height="40" as="geometry" />
        </mxCell>
        <mxCell id="HhLSWFiGgu7NGeqh1RTd-42" value="" style="rounded=1;whiteSpace=wrap;html=1;fillColor=none;" vertex="1" parent="1">
          <mxGeometry x="500" y="20" width="610" height="580" as="geometry" />
        </mxCell>
        <mxCell id="HhLSWFiGgu7NGeqh1RTd-43" value="ERP" style="text;html=1;align=center;verticalAlign=middle;whiteSpace=wrap;rounded=1;fontSize=40;fillColor=#fff2cc;strokeColor=#d6b656;" vertex="1" parent="1">
          <mxGeometry x="700" width="220" height="35" as="geometry" />
        </mxCell>
        <mxCell id="HhLSWFiGgu7NGeqh1RTd-44" value="Integration Model (&lt;font style=&quot;font-size: 30px;&quot;&gt;&lt;font style=&quot;&quot;&gt;H&lt;/font&gt;ow Tables are Connected&lt;/font&gt;)" style="text;html=1;align=center;verticalAlign=middle;whiteSpace=wrap;rounded=0;fontSize=40;" vertex="1" parent="1">
          <mxGeometry x="-260" y="-150" width="800" height="90" as="geometry" />
        </mxCell>
        <mxCell id="HhLSWFiGgu7NGeqh1RTd-45" value="PRODUCT" style="text;html=1;strokeColor=#b85450;fillColor=#f8cecc;align=center;verticalAlign=middle;whiteSpace=wrap;overflow=hidden;fontSize=20;rounded=1;" vertex="1" parent="1">
          <mxGeometry x="245" y="482" width="180" height="40" as="geometry" />
        </mxCell>
        <mxCell id="HhLSWFiGgu7NGeqh1RTd-46" value="PRODUCT" style="text;html=1;strokeColor=#b85450;fillColor=#f8cecc;align=center;verticalAlign=middle;whiteSpace=wrap;overflow=hidden;fontSize=20;rounded=1;" vertex="1" parent="1">
          <mxGeometry x="620" y="482" width="240" height="40" as="geometry" />
        </mxCell>
        <mxCell id="HhLSWFiGgu7NGeqh1RTd-47" value="CUSTOMER" style="text;html=1;strokeColor=#82b366;fillColor=#d5e8d4;align=center;verticalAlign=middle;whiteSpace=wrap;overflow=hidden;fontSize=20;rounded=1;" vertex="1" parent="1">
          <mxGeometry x="250" y="270" width="180" height="40" as="geometry" />
        </mxCell>
        <mxCell id="HhLSWFiGgu7NGeqh1RTd-48" value="CUSTOMER" style="text;html=1;strokeColor=#82b366;fillColor=#d5e8d4;align=center;verticalAlign=middle;whiteSpace=wrap;overflow=hidden;fontSize=20;rounded=1;" vertex="1" parent="1">
          <mxGeometry x="630" y="190" width="180" height="40" as="geometry" />
        </mxCell>
        <mxCell id="HhLSWFiGgu7NGeqh1RTd-49" value="CUSTOMER" style="text;html=1;strokeColor=#82b366;fillColor=#d5e8d4;align=center;verticalAlign=middle;whiteSpace=wrap;overflow=hidden;fontSize=20;rounded=1;" vertex="1" parent="1">
          <mxGeometry x="630" y="352" width="180" height="40" as="geometry" />
        </mxCell>
        <mxCell id="HhLSWFiGgu7NGeqh1RTd-50" value="SALES" style="text;html=1;strokeColor=#9673a6;fillColor=#e1d5e7;align=center;verticalAlign=middle;whiteSpace=wrap;overflow=hidden;fontSize=20;rounded=1;" vertex="1" parent="1">
          <mxGeometry x="-210" y="348" width="230" height="40" as="geometry" />
        </mxCell>
      </root>
    </mxGraphModel>
  </diagram>
</mxfile>
